{
	"asset":{
		"generator":"Khronos glTF Blender I/O v3.5.30",
		"version":"2.0"
	},
	"extensionsUsed":[
		"KHR_materials_transmission",
		"KHR_materials_ior"
	],
	"scene":0,
	"scenes":[
		{
			"name":"Scene",
			"nodes":[
				0
			]
		}
	],
	"nodes":[
		{
			"mesh":0,
			"name":"Plane",
			"translation":[
				0,
				2.5246694087982178,
				0
			]
		}
	],
	"materials":[
		{
			"doubleSided":true,
			"extensions":{
				"KHR_materials_transbufferViewmission":{
					"transmissionFactor":1
				},
				"KHR_materials_ior":{
					"ior":1.4500000476837158
				}
			},
			"name":"Material.001",
			"pbrMetallicRoughness":{
				"baseColorFactor":[
					0.005960569716989994,
					0,
					0.8000000715255737,
					1
				],
				"metallicFactor":0,
				"roughnessFactor":0.5
			}
		}
	],
	"meshes":[
		{
			"name":"Plane",
			"primitives":[
				{
					"attributes":{
						"POSITION":0,
						"TEXCOORD_0":1,
						"NORMAL":2
					},
					"indices":3,
					"material":0
				}
			]
		}
	],
	"accessors":[
		{
			"bufferView":0,
			"componentType":5126,
			"count":51076,
			"max":[
				25.31068229675293,
				1.9501087665557861,
				26.061513900756836
			],
			"min":[
				-25.31068229675293,
				-1.8586941957473755,
				-26.061513900756836
			],
			"type":"VEC3"
		},
		{
			"bufferView":1,
			"componentType":5126,
			"count":51076,
			"type":"VEC2"
		},
		{
			"bufferView":2,
			"componentType":5126,
			"count":51076,
			"type":"VEC3"
		},
		{
			"bufferView":3,
			"componentType":5123,
			"count":303750,
			"type":"SCALAR"
		}
	],
	"bufferViews":[
		{
			"buffer":0,
			"byteLength":612912,
			"byteOffset":0,
			"target":34962
		},
		{
			"buffer":0,
			"byteLength":408608,
			"byteOffset":612912,
			"target":34962
		},
		{
			"buffer":0,
			"byteLength":612912,
			"byteOffset":1021520,
			"target":34962
		},
		{
			"buffer":0,
			"byteLength":607500,
			"byteOffset":1634432,
			"target":34963
		}
	],
	"buffers":[
		{
			"byteLength":2241932,
			"uri":"data:application/octet-stream;base64,"
		}
	]
}
